<?xml version="1.0" encoding="UTF-8"?><svg id="_レイヤー_2" xmlns="http://www.w3.org/2000/svg" viewBox="0 0 400 400"><defs><style>.cls-1{fill:#edbc64;}.cls-1,.cls-2{fill-rule:evenodd;stroke-width:0px;}.cls-2{fill:#6495ed;}</style></defs><g id="Layer_1"><path class="cls-2" d="M340.67,342.17c15.75-15.59,28.93-33.77,38.83-53.86-8.92-2.89-17.56-6.16-25.81-9.63-46.07-19.39-98.15-23.22-144.59-6.94-86.02,30.15-149.13,27.07-191.05,11.42,13.34,29.15,33.48,54.53,58.39,74.13,28.89-.97,63.61-7.21,104.76-21.63,51.99-18.23,109.3-14.01,159.47,6.52ZM321.43,358.93c-42.91-15.16-89.97-17.04-132.33-2.19-30.17,10.58-57.53,17.06-82.14,20.35,27.79,14.63,59.45,22.91,93.04,22.91,45.67,0,87.76-15.31,121.43-41.07ZM362.94,258.11c8.31,3.5,16.8,6.68,25.38,9.4,7.56-21.09,11.68-43.82,11.68-67.51H0c0,18.3,2.46,36.04,7.07,52.88,32.74,19.68,94.65,32.64,194.14-2.23,52.78-18.5,111.03-13.88,161.74,7.46Z"/><path class="cls-1" d="M0,200C0,89.54,89.54,0,200,0s200,89.54,200,200h-92c0-59.65-48.35-108-108-108s-108,48.35-108,108H0Z"/></g></svg>