<svg width="32" height="32" viewBox="0 0 32 32" fill="none" xmlns="http://www.w3.org/2000/svg">
<path fill-rule="evenodd" clip-rule="evenodd" d="M27.2542 27.3744C28.5139 26.1276 29.5676 24.6729 30.3594 23.0661C29.6459 22.8349 28.9547 22.5733 28.2953 22.2959C24.61 20.7451 20.4435 20.4387 16.7282 21.741C9.84591 24.1533 4.79682 23.9063 1.44367 22.6538C2.51063 24.9851 4.12119 27.0156 6.11317 28.5831C8.4246 28.5061 11.203 28.0069 14.496 26.8527C18.6559 25.3946 23.2403 25.7318 27.2542 27.3744ZM25.7152 28.7155C22.2825 27.5022 18.5173 27.3513 15.1277 28.5394C12.7128 29.3859 10.5236 29.9049 8.55418 30.168C10.7324 31.3152 13.2075 31.9748 15.8341 32.0014H16.1649C19.7552 31.965 23.0623 30.7461 25.7152 28.7155ZM29.035 20.6508C29.6996 20.9304 30.3787 21.1847 31.0648 21.4029C31.6695 19.7159 31.999 17.8978 31.999 16.0028V16.002H0V16.0028C0 17.4668 0.196633 18.8849 0.564931 20.2321C3.18356 21.8067 8.13691 22.8442 16.0965 20.0543C20.3188 18.5743 24.9784 18.9438 29.035 20.6508Z" fill="#A6B0C3"/>
<path fill-rule="evenodd" clip-rule="evenodd" d="M16.0074 0C24.84 0.00426653 31.999 7.16582 31.999 15.9994H24.6394C24.6388 11.2283 20.7709 7.36077 15.9997 7.36077C11.2284 7.36077 7.36049 11.2283 7.35993 15.9994H0C0 7.16582 7.15895 0.00426653 15.9916 0H16.0074Z" fill="#A6B0C3"/>
</svg>
